<svg aria-hidden="true" style="position: absolute; width: 0; height: 0; overflow: hidden;" version="1.1" xmlns="http://www.w3.org/2000/svg" xmlns:xlink="http://www.w3.org/1999/xlink">
<defs>
<symbol id="icon-Logo" viewBox="0 0 42 32">
<path fill="#fff" style="fill: var(--color1, #fff)" d="M8.608 13.446h0c4.754 0 8.608 3.854 8.608 8.608v0c0 4.754-3.854 8.608-8.608 8.608h-0c-4.754 0-8.608-3.854-8.608-8.608v-0c0-4.754 3.854-8.608 8.608-8.608z"></path>
<path fill="#fff" style="fill: var(--color1, #fff)" d="M33.572 0.534h0c4.754 0 8.608 3.854 8.608 8.608v12.912c0 4.754-3.854 8.608-8.608 8.608h-0c-4.754 0-8.608-3.854-8.608-8.608v-12.912c0-4.754 3.854-8.608 8.608-8.608z"></path>
</symbol>
<symbol id="icon-Shape" viewBox="0 0 29 32">
<path d="M14.137 31.784c0.491 0.002 0.984-0.199 1.337-0.604l12.343-14.126c0.642-0.734 0.567-1.85-0.168-2.492s-1.85-0.566-2.492 0.168l-9.265 10.604v-23.568c0-0.975-0.791-1.766-1.766-1.766s-1.766 0.791-1.766 1.766v23.538l-9.267-10.575c-0.643-0.733-1.758-0.807-2.492-0.164s-0.807 1.758-0.164 2.492l12.227 13.954c0.318 0.467 0.854 0.774 1.461 0.774 0.003 0 0.007 0 0.010 0z"></path>
</symbol>
<symbol id="icon-star-full" viewBox="0 0 32 32">
<path d="M32 12.408l-11.056-1.607-4.944-10.018-4.944 10.018-11.056 1.607 8 7.798-1.889 11.011 9.889-5.199 9.889 5.199-1.889-11.011 8-7.798z"></path>
</symbol>
</defs>
</svg>
